<?xml version="1.0" standalone="no"?>
<!DOCTYPE svg PUBLIC "-//W3C//DTD SVG 20010904//EN"
 "http://www.w3.org/TR/2001/REC-SVG-20010904/DTD/svg10.dtd">
<svg version="1.0" xmlns="http://www.w3.org/2000/svg"
 width="900.000000pt" height="900.000000pt" viewBox="0 0 900.000000 900.000000"
 preserveAspectRatio="xMidYMid meet">
<metadata>
Created by potrace 1.16, written by Peter Selinger 2001-2019
</metadata>
<g transform="translate(0.000000,900.000000) scale(0.100000,-0.100000)"
fill="#000000" stroke="none">
<path d="M0 4500 l0 -4500 4500 0 4500 0 0 4500 0 4500 -4500 0 -4500 0 0
-4500z m5310 3768 c12 -35 49 -120 81 -190 79 -171 86 -203 63 -267 -10 -28
-37 -76 -61 -108 -78 -104 -187 -159 -397 -198 -182 -33 -229 -58 -255 -134
-21 -63 -12 -67 34 -14 50 57 62 62 220 93 137 27 219 58 312 116 77 48 117
91 177 192 21 35 43 61 49 59 16 -5 27 -55 20 -91 -11 -60 -37 -92 -209 -267
-131 -133 -179 -189 -199 -230 -26 -56 -31 -79 -17 -79 4 0 13 5 20 12 9 10
16 9 28 -3 13 -14 13 -21 -5 -66 -27 -68 -30 -111 -36 -528 -6 -358 -10 -425
-26 -425 -15 0 -17 15 -24 178 -6 167 -15 217 -38 209 -13 -4 -13 -8 3 -137 5
-47 10 -185 10 -307 l0 -221 -37 -29 c-134 -104 -371 -233 -434 -236 l-32 -2
-28 133 c-16 72 -37 162 -49 198 -11 36 -20 79 -20 96 0 32 17 42 192 109 57
22 97 46 128 75 25 23 42 45 39 49 -3 3 -48 -15 -100 -40 -56 -27 -143 -57
-214 -75 -147 -37 -165 -44 -165 -69 0 -11 29 -75 65 -144 68 -132 95 -217 95
-308 0 -42 -5 -60 -19 -73 -26 -24 -120 -32 -145 -13 -19 14 -19 17 -3 85 9
38 17 75 17 81 0 26 -18 8 -40 -40 -25 -53 -61 -89 -88 -89 -9 0 -28 11 -42
25 -14 14 -54 36 -89 50 -65 25 -279 149 -363 210 l-47 34 24 88 c13 48 31
108 39 132 20 55 20 111 0 181 -12 42 -17 123 -21 350 -6 324 4 477 37 559 27
69 25 81 -6 50 -36 -36 -51 -118 -59 -324 -6 -175 -20 -260 -36 -218 -17 48
-30 289 -20 399 11 128 36 203 86 261 31 37 250 211 380 304 80 57 176 112
183 105 3 -4 -1 -28 -10 -53 -12 -32 -14 -53 -7 -70 15 -40 11 -125 -9 -160
-9 -18 -34 -59 -55 -93 -21 -33 -37 -65 -35 -71 2 -6 21 3 43 20 87 68 413
279 459 296 48 18 52 18 170 0 177 -27 250 -29 329 -11 72 17 148 61 169 99
22 40 15 182 -15 268 -32 93 -68 234 -69 269 -1 33 11 72 21 65 5 -2 18 -33
31 -67z m-4262 -680 c52 -57 54 -115 6 -239 -61 -158 -90 -208 -131 -225 -59
-25 -72 -17 -99 60 -35 102 -33 180 8 263 17 35 52 87 78 114 38 41 52 49 81
49 24 0 42 -7 57 -22z m-317 2 c45 -25 63 -109 33 -159 -17 -29 -88 -77 -129
-87 -49 -12 -24 -24 50 -24 l74 0 16 -52 c8 -28 15 -69 15 -90 0 -43 -10 -50
-102 -69 -77 -17 -57 -30 43 -28 68 1 94 -2 101 -12 5 -8 7 -41 4 -74 -4 -50
-9 -64 -34 -86 -18 -16 -47 -29 -76 -33 l-47 -7 3 -40 c1 -21 -3 -44 -10 -51
-7 -7 -12 -19 -12 -28 0 -11 5 -9 18 8 21 27 70 34 82 12 5 -8 12 -31 17 -50
l9 -35 21 40 c23 44 90 108 104 99 5 -3 14 -2 19 1 6 4 -2 22 -20 46 -23 28
-34 57 -42 103 -15 91 -8 112 42 120 43 7 114 62 125 97 11 35 32 20 49 -38
10 -32 24 -74 31 -93 24 -62 19 -92 -25 -140 -38 -41 -57 -76 -47 -86 2 -3 16
0 31 6 15 5 33 10 40 10 7 0 43 -36 80 -81 37 -44 139 -155 226 -247 214 -227
230 -246 230 -288 0 -60 -42 -120 -74 -108 -9 3 -76 74 -148 157 -205 234
-246 275 -257 258 -15 -24 -20 -17 239 -334 119 -146 142 -196 105 -227 -24
-20 -64 4 -114 66 -48 60 -196 191 -328 292 -114 87 -129 120 -97 215 9 25 14
54 12 64 -3 11 -11 -2 -22 -34 -18 -55 -59 -98 -103 -109 -62 -16 -138 3 -267
66 -70 35 -131 71 -136 81 -6 10 -13 46 -16 81 -3 35 -12 80 -20 101 -8 21
-14 75 -14 125 0 48 -5 105 -11 127 -12 45 -13 55 -3 140 4 45 2 71 -10 99
-23 56 -21 126 7 166 18 27 45 41 157 85 148 58 153 60 181 45z m7427 -226
c30 -21 51 -65 73 -149 25 -94 24 -129 -7 -225 -29 -93 -51 -112 -103 -90 -46
19 -82 109 -111 284 -14 85 -8 114 34 160 37 40 76 47 114 20z m366 -134 c68
-45 131 -96 144 -114 27 -39 25 -65 -15 -181 -13 -38 -27 -105 -30 -148 -5
-61 -12 -87 -31 -115 -20 -28 -27 -55 -31 -112 -5 -55 -13 -86 -31 -115 -13
-21 -29 -66 -35 -100 l-11 -60 -99 -35 c-91 -32 -110 -35 -212 -35 -97 0 -115
3 -139 21 -29 21 -53 89 -54 147 0 15 -4 27 -10 27 -6 0 -10 -34 -10 -82 l0
-82 -73 -70 c-123 -120 -289 -269 -357 -321 -36 -27 -97 -80 -137 -117 -40
-37 -74 -68 -77 -68 -21 0 -36 16 -36 40 0 42 59 112 281 332 109 108 199 201
199 207 0 32 -50 1 -220 -134 -139 -111 -182 -140 -238 -159 -39 -14 -47 -14
-83 1 -49 19 -72 59 -63 108 14 75 54 117 265 275 112 84 233 179 270 210 137
119 195 144 220 98 11 -21 12 -21 26 -2 19 26 8 64 -29 95 -26 22 -29 30 -23
58 8 39 103 183 116 176 4 -3 14 -24 21 -46 13 -46 49 -79 85 -79 32 0 38 -20
23 -93 -15 -77 -34 -114 -74 -149 -29 -24 -30 -27 -11 -33 62 -20 76 -37 110
-140 9 -29 25 0 25 47 0 27 6 40 20 48 22 12 44 -5 76 -59 10 -17 22 -31 26
-31 14 0 7 103 -8 127 -8 13 -37 34 -64 48 -27 14 -54 35 -61 47 -17 31 -4
117 21 142 19 20 21 20 84 3 79 -21 86 -21 86 -1 0 9 -22 25 -55 39 -51 23
-55 27 -55 58 0 47 29 126 50 137 12 7 32 5 64 -6 26 -9 50 -14 53 -11 3 3
-13 27 -35 54 -46 55 -62 90 -62 138 0 37 41 95 67 95 9 0 70 -36 137 -80z
m-1012 -487 c14 -16 49 -63 77 -107 l51 -78 -43 -39 c-50 -45 -103 -76 -113
-66 -4 4 3 25 15 47 18 32 19 40 7 40 -8 0 -16 -3 -18 -7 -10 -24 -147 -129
-219 -169 -46 -25 -94 -55 -107 -67 -43 -40 -69 -115 -75 -217 -11 -190 -73
-473 -141 -645 -43 -109 -93 -301 -82 -312 3 -4 7 -4 9 -2 13 20 169 427 180
468 12 52 38 84 54 68 4 -4 10 -81 14 -170 6 -130 12 -179 33 -248 56 -189
119 -301 160 -286 21 8 55 78 67 140 5 28 9 122 7 207 -3 193 -1 328 7 359 7
29 112 141 133 141 10 0 13 -7 9 -22 -3 -13 -17 -75 -32 -138 -31 -127 -35
-223 -20 -472 10 -177 3 -220 -39 -259 -18 -16 -38 -46 -44 -67 -19 -63 -33
-75 -86 -74 -29 1 -60 9 -81 22 -41 25 -75 92 -75 148 0 72 -20 141 -45 158
-39 26 -87 -3 -205 -125 -105 -108 -146 -133 -179 -112 -11 7 -12 22 -3 87 14
94 30 350 42 639 7 178 13 238 44 395 24 126 42 194 56 212 11 15 23 48 27 73
3 26 16 61 27 78 12 18 96 96 186 175 296 257 289 252 335 252 32 0 47 -6 67
-27z m-5539 -72 c33 -39 63 -157 82 -316 24 -208 26 -193 -55 -500 -29 -109
-32 -133 -32 -265 1 -165 17 -303 68 -563 29 -149 35 -200 32 -279 -3 -89 -5
-100 -28 -123 -31 -30 -141 -57 -180 -43 -14 4 -99 67 -190 140 -91 72 -198
156 -237 186 l-73 54 0 192 c0 105 -5 230 -10 277 -11 95 -98 417 -130 479
-24 46 -26 107 -5 136 21 31 68 48 94 35 25 -14 29 -29 34 -151 4 -77 15 -127
55 -262 70 -229 94 -433 71 -599 -11 -82 -10 -91 6 -109 17 -19 55 -28 55 -13
0 3 -7 15 -16 25 -14 15 -15 20 -3 34 11 14 27 16 96 11 131 -9 145 -26 114
-128 -11 -35 -18 -66 -15 -69 12 -11 51 49 66 101 25 85 86 357 97 429 16 105
31 334 31 480 0 257 -68 700 -108 700 -5 0 -40 -20 -76 -45 -100 -66 -143 -56
-101 24 23 45 125 132 190 162 82 38 135 38 168 0z m3313 -117 c106 -36 376
-204 513 -320 173 -146 177 -151 165 -171 -8 -13 -21 -17 -45 -15 -30 4 -39
-3 -100 -70 -53 -57 -71 -71 -82 -63 -9 6 -48 35 -89 66 -40 31 -142 102 -226
159 l-153 103 7 83 7 83 -34 20 c-19 12 -44 21 -56 21 -25 0 -27 8 -17 84 7
46 7 47 38 40 17 -3 50 -13 72 -20z m-1686 -147 c0 -166 11 -147 -125 -227
-126 -74 -253 -170 -372 -283 l-102 -97 -60 0 c-69 0 -101 -10 -130 -41 l-20
-22 -48 43 c-26 24 -52 47 -57 51 -10 9 17 56 85 150 80 110 359 339 536 441
84 48 257 127 281 128 9 0 12 -35 12 -143z m3247 -153 c3 -9 -4 -35 -15 -58
-13 -25 -30 -93 -43 -171 -14 -89 -32 -156 -56 -215 -46 -111 -49 -120 -79
-285 -23 -124 -27 -172 -30 -425 -5 -327 -7 -346 -34 -355 -46 -15 -115 56
-163 164 l-24 55 -7 -42 c-4 -25 -18 -55 -35 -74 l-29 -33 -22 20 c-21 18 -22
26 -17 100 3 44 14 112 25 151 11 41 16 79 11 91 -4 11 -32 32 -63 46 -49 23
-56 31 -62 63 -12 63 3 204 36 328 17 66 29 124 26 130 -7 18 -57 -103 -84
-204 -22 -83 -25 -116 -26 -265 -1 -93 3 -244 8 -335 8 -170 3 -214 -29 -226
-34 -13 -60 6 -95 68 -19 35 -94 153 -167 262 -73 110 -133 202 -133 205 0 3
16 29 36 56 20 28 45 68 56 89 11 22 43 63 70 92 55 59 58 84 9 84 -23 0 -56
-23 -155 -109 -136 -119 -153 -131 -188 -131 -54 0 -89 60 -68 115 5 13 51 80
103 147 52 68 133 179 181 248 48 69 97 133 109 142 46 37 142 10 220 -62 69
-62 86 -70 150 -70 63 0 132 22 164 52 12 12 43 63 68 115 53 112 82 151 136
189 79 54 203 82 216 48z m-4600 -243 c119 -104 153 -124 292 -173 107 -37
159 -67 201 -115 54 -61 79 -128 86 -229 6 -83 4 -91 -18 -124 -13 -19 -33
-36 -45 -38 -34 -5 -44 -24 -33 -63 5 -19 14 -148 19 -287 6 -139 13 -257 17
-263 12 -20 -7 -60 -39 -79 -38 -24 -103 -26 -151 -6 -46 19 -89 65 -154 166
-75 117 -227 304 -306 376 -36 33 -73 77 -81 98 -34 82 -43 402 -15 532 20 93
92 304 103 304 7 0 63 -45 124 -99z m782 -271 c30 -15 43 -30 57 -66 25 -66
10 -126 -60 -240 -31 -50 -56 -98 -56 -108 0 -29 29 -29 70 -1 22 16 43 25 46
22 10 -9 23 -253 24 -419 0 -150 7 -185 30 -162 5 5 11 113 14 239 7 289 26
474 56 543 36 84 126 151 169 125 9 -5 26 -29 39 -53 21 -43 22 -53 21 -310 0
-146 -4 -273 -8 -284 -6 -17 -10 -15 -34 14 -15 17 -39 52 -53 76 -28 47 -51
59 -40 22 4 -13 27 -106 52 -208 25 -102 66 -265 90 -364 24 -98 47 -202 50
-232 4 -30 11 -54 15 -54 11 0 13 -23 -16 179 -25 173 -25 211 0 211 18 0 40
-36 61 -103 10 -31 22 -57 27 -57 4 0 6 8 2 19 -13 40 -35 158 -35 186 0 59
53 75 89 28 22 -27 101 -263 101 -300 0 -41 11 -53 46 -53 24 0 43 9 65 30 30
28 32 29 66 15 23 -10 50 -12 80 -8 45 6 46 6 40 -18 -4 -13 -7 -29 -7 -36 0
-6 -12 -25 -26 -42 -21 -25 -33 -31 -65 -31 -24 0 -40 -5 -40 -12 -1 -7 -2
-51 -3 -98 -1 -67 -7 -99 -28 -150 -34 -85 -44 -149 -25 -174 22 -30 53 -6 72
56 8 28 15 57 15 64 0 34 21 17 56 -47 45 -83 72 -108 168 -156 182 -91 214
-143 186 -294 -16 -84 -68 -180 -193 -359 -64 -91 -146 -219 -184 -284 -37
-66 -74 -125 -80 -132 -10 -9 -55 -11 -185 -8 -95 3 -174 7 -176 9 -12 11 18
89 65 166 30 50 53 98 51 107 -3 15 -22 17 -173 17 -94 0 -177 1 -186 3 -9 1
-21 14 -27 30 -6 15 -23 61 -38 102 -15 41 -53 120 -84 175 -78 136 -91 217
-25 155 37 -35 190 -92 237 -88 62 5 67 21 35 125 -15 48 -36 99 -46 113 -10
13 -44 35 -76 47 -70 27 -83 39 -190 168 -124 151 -147 208 -180 445 -17 125
-20 306 -9 700 5 186 4 258 -6 300 -7 30 -14 111 -14 180 -1 104 -4 130 -19
152 -40 59 26 148 109 148 25 0 62 -9 83 -20z m1966 -184 c31 -21 39 -63 25
-144 -14 -84 -43 -137 -97 -178 -58 -45 -182 -94 -236 -94 l-44 0 -27 59 c-14
32 -26 69 -26 81 0 52 168 227 264 275 55 28 99 29 141 1z m-1055 -11 c22 -12
33 -27 41 -61 17 -66 81 -126 163 -154 60 -20 64 -23 70 -58 3 -20 6 -50 6
-65 0 -38 23 -30 31 11 8 37 93 178 113 185 41 16 81 -34 144 -178 49 -113 49
-113 -1 -182 -49 -66 -104 -113 -132 -113 -10 0 -49 33 -88 73 l-70 72 8 -40
c4 -22 8 -53 9 -70 1 -30 0 -30 -56 -33 l-58 -3 0 31 c0 72 -45 131 -113 149
-57 14 -128 61 -163 107 -26 33 -29 47 -32 120 -4 92 10 179 35 206 20 22 54
23 93 3z m1407 -7 c44 -30 50 -59 24 -101 -27 -43 -106 -117 -125 -117 -40 0
-50 124 -16 198 17 37 23 42 51 42 18 0 48 -10 66 -22z m-389 -381 c3 -22 -3
-31 -28 -45 -17 -9 -88 -52 -158 -94 -128 -78 -176 -94 -189 -62 -17 45 63
110 212 173 55 23 107 46 115 51 25 16 45 7 48 -23z m360 -165 c46 -49 102
-116 102 -123 0 -4 -39 -33 -86 -64 -65 -44 -88 -55 -97 -46 -13 13 -15 215
-4 245 10 26 56 19 85 -12z m-691 -83 c95 -43 128 -69 175 -137 37 -53 27 -72
-38 -72 -31 0 -68 13 -136 47 -116 59 -192 69 -260 33 -69 -35 -188 -129 -263
-207 -77 -79 -108 -92 -119 -48 -11 42 -26 228 -21 245 6 18 127 89 197 115
57 21 148 17 176 -8 28 -26 96 -22 119 6 14 17 71 65 80 67 0 0 41 -18 90 -41z
m2483 6 c0 -37 26 -93 65 -141 19 -23 35 -48 35 -55 0 -6 -16 -36 -35 -65 -61
-91 -85 -153 -85 -217 0 -42 -4 -59 -15 -63 -20 -8 -260 74 -291 99 -29 22
-56 74 -74 141 -13 48 -13 49 14 73 l28 24 60 -60 c83 -83 181 -126 204 -89 4
6 8 72 8 147 1 118 4 142 23 184 16 34 28 47 42 47 16 0 21 -6 21 -25z m-3215
-107 c28 -25 39 -73 49 -210 5 -62 3 -80 -10 -92 -38 -38 -82 42 -105 191 -19
126 4 165 66 111z m-1672 -79 c53 -27 191 -160 212 -205 20 -43 45 -468 28
-485 -20 -20 -49 0 -119 82 -84 98 -127 171 -156 268 -12 41 -36 94 -54 117
-31 41 -32 43 -19 80 8 22 14 67 15 102 0 60 1 62 25 62 14 0 45 -10 68 -21z
m3444 -36 c34 -23 95 -118 109 -172 25 -99 8 -122 -231 -301 -71 -53 -161
-126 -200 -160 -76 -68 -129 -97 -197 -106 -100 -14 -229 42 -270 116 -28 51
-20 143 21 248 30 76 34 82 62 82 22 0 30 -5 35 -26 4 -14 1 -37 -5 -50 -19
-43 -13 -44 62 -12 39 16 89 37 110 46 31 12 39 22 48 56 29 113 75 160 238
242 126 63 167 70 218 37z m-998 -207 c16 -17 25 -39 28 -73 5 -46 3 -52 -35
-96 -48 -55 -62 -97 -62 -189 0 -84 12 -97 121 -133 148 -50 206 -120 197
-240 -11 -125 -62 -186 -331 -388 -189 -142 -336 -287 -497 -492 -170 -214
-220 -275 -225 -275 -20 0 151 279 397 646 118 177 218 333 222 348 10 41 -11
103 -52 148 -28 31 -74 59 -190 115 -184 89 -202 104 -202 171 0 59 27 255 40
298 14 41 64 90 122 120 47 24 202 53 214 41 14 -14 -10 -81 -42 -116 -41 -46
-44 -78 -10 -87 24 -6 66 10 66 25 0 4 25 41 55 81 30 40 55 79 55 86 0 7 10
20 23 29 28 21 74 12 106 -19z m2046 16 c6 -4 11 -24 11 -45 l1 -38 -151 3
-151 3 -3 43 -3 42 143 0 c79 0 148 -4 153 -8z m-517 -52 c5 -30 -63 -124
-127 -176 -76 -61 -203 -127 -286 -149 -62 -16 -117 -20 -128 -9 -21 21 73
115 178 176 39 23 122 72 185 110 85 51 123 68 145 66 17 -2 31 -9 33 -18z
m-4048 -96 c38 -113 78 -182 159 -273 17 -20 21 -37 21 -100 0 -42 9 -141 19
-221 43 -329 121 -582 275 -895 192 -387 370 -614 646 -819 128 -96 228 -153
395 -226 77 -33 154 -67 172 -75 29 -13 32 -19 39 -75 9 -85 26 -95 160 -95
l102 0 63 43 62 43 231 1 c127 0 269 4 316 7 47 4 86 7 87 6 2 -1 -68 -49
-155 -108 -86 -58 -190 -134 -231 -168 l-74 -63 -101 12 c-210 23 -486 82
-633 133 -151 53 -433 207 -585 321 -104 78 -342 316 -429 428 -215 279 -378
593 -493 948 -96 297 -153 784 -128 1086 17 201 37 224 82 90z m4204 0 c-11
-60 -128 -174 -255 -248 -26 -14 -81 -56 -122 -91 -42 -36 -78 -65 -81 -65 -9
0 -15 50 -10 80 10 46 92 131 219 225 61 45 135 103 165 128 53 45 56 45 73
28 15 -14 17 -26 11 -57z m437 24 c14 -27 10 -436 -6 -623 -37 -419 -135 -763
-306 -1082 -97 -179 -274 -426 -422 -588 l-55 -60 -59 55 c-32 30 -79 71 -103
90 l-43 36 79 93 c321 379 442 590 554 976 67 229 89 448 90 872 l0 242 103 4
c154 4 158 4 168 -15z m-4057 -201 c9 -148 23 -222 57 -302 16 -38 29 -80 29
-92 0 -32 -37 -30 -87 5 -21 15 -73 51 -115 79 -126 87 -133 113 -60 220 93
137 137 192 153 193 13 0 17 -18 23 -103z m3022 -400 c2 -7 -4 -33 -15 -58
-25 -53 -27 -129 -6 -190 12 -34 42 -71 129 -157 198 -197 191 -247 -79 -565
-217 -256 -255 -314 -255 -393 0 -96 69 -168 232 -242 84 -38 149 -98 179
-165 22 -47 24 -66 23 -182 -1 -206 -44 -339 -143 -447 -105 -115 -235 -163
-475 -177 -241 -15 -326 -38 -515 -137 -188 -99 -303 -202 -461 -414 -40 -52
-76 -97 -81 -98 -24 -9 30 230 76 340 93 222 236 363 547 542 244 140 369 294
369 452 1 92 -65 179 -152 205 -52 16 -152 0 -241 -37 -102 -43 -538 -291
-692 -393 -67 -45 -70 -46 -160 -49 -50 -1 -97 1 -104 6 -19 13 -17 111 3 172
9 26 46 97 82 157 81 134 102 191 113 317 16 184 -13 321 -82 393 -24 24 -29
37 -24 57 12 47 230 316 257 316 5 0 9 -13 9 -29 0 -47 10 -61 42 -61 18 0 38
9 53 26 l23 25 8 -23 c10 -34 6 -100 -11 -165 -24 -91 -22 -219 4 -279 49
-111 114 -152 329 -209 385 -102 607 -170 646 -200 78 -59 99 -167 61 -304
-26 -89 -7 -97 41 -16 37 64 53 135 60 260 5 102 4 113 -18 155 -30 59 -120
130 -228 182 -47 22 -126 60 -176 84 -107 51 -197 131 -235 209 -31 66 -38
194 -15 286 20 78 109 264 167 350 99 148 235 292 324 345 62 36 308 122 353
123 18 1 35 -5 38 -12z m-1786 -1204 c20 -25 22 -37 17 -113 -9 -166 -90 -281
-255 -363 -74 -36 -96 -42 -164 -46 -76 -3 -79 -2 -106 27 -33 35 -52 91 -52
154 0 85 36 152 140 257 76 78 114 101 166 101 81 0 83 -34 9 -155 -30 -49
-55 -93 -55 -97 0 -22 31 -2 69 45 67 82 192 217 201 217 5 0 18 -12 30 -27z"/>
</g>
</svg>
