<svg xmlns="http://www.w3.org/2000/svg" width="24" height="24" fill="none">
  <path
    stroke="#A5A5A5"
    stroke-linecap="round"
    stroke-linejoin="round"
    stroke-width="2.808"
    d="M17.292 7.49h9.227M17.292 21.964h9.227"
  />
  <path
    fill="#fff"
    fill-rule="evenodd"
    d="m10.472 21.025-5.164-5.163 20.897.03a1.396 1.396 0 0 0 .004-2.793l-20.885-.03 5.122-5.06a1.397 1.397 0 0 0-.003-1.974 1.396 1.396 0 0 0-1.975-.003L.986 13.514a1.242 1.242 0 0 0-.377 1c-.003.363.13.725.407 1.002l7.48 7.48a1.396 1.396 0 1 0 1.976-1.97Z"
    clip-rule="evenodd"
  />
</svg>
